{
  "source": "C:\\Users\\Peter\\Desktop\\stuff\\MIUN\\quantitative_research\\video_compression\\videos\\BVI-HD\\BVI-HD_CDVL_videos\\ORIG\\Boxing_1920x1080_30fps.mp4",
  "output": "C:\\Users\\Peter\\Desktop\\stuff\\MIUN\\quantitative_research\\video_compression\\compressed_videos\\BVI-HD\\vp9\\1\\Boxing_1920x1080_30fps_vp9.webm",
  "codec": "vp9",
  "ok": "Input #0, mov,mp4,m4a,3gp,3g2,mj2, from 'C:\\Users\\Peter\\Desktop\\stuff\\MIUN\\quantitative_research\\video_compression\\videos\\BVI-HD\\BVI-HD_CDVL_videos\\ORIG\\Boxing_1920x1080_30fps.mp4':\n  Metadata:\n    major_brand     : isom\n    minor_version   : 512\n    compatible_brands: isomiso2avc1mp41\n    encoder         : Lavf54.28.101\n  Duration: 00:00:05.00, start: 0.000000, bitrate: 238363 kb/s\n  Stream #0:0[0x1](und): Video: h264 (High 4:4:4 Predictive) (avc1 / 0x31637661), yuv420p(progressive), 1920x1080, 238359 kb/s, 30 fps, 30 tbr, 30 tbn (default)\n    Metadata:\n      handler_name    : VideoHandler\n      vendor_id       : [0][0][0][0]\n[out#0/webm @ 00000224a3af12c0] Codec AVOption b:a (set bitrate (in bits/s)) has not been used for any stream. The most likely reason is either wrong type (e.g. a video option with no video streams) or that it is a private option of some decoder which was not actually used for any stream.\nStream mapping:\n  Stream #0:0 -> #0:0 (h264 (native) -> vp9 (libvpx-vp9))\nPress [q] to stop, [?] for help\n[libvpx-vp9 @ 00000224a57fb040] v1.15.2-100-g40561f514\nOutput #0, webm, to 'C:\\Users\\Peter\\Desktop\\stuff\\MIUN\\quantitative_research\\video_compression\\compressed_videos\\BVI-HD\\vp9\\1\\Boxing_1920x1080_30fps_vp9.webm':\n  Metadata:\n    major_brand     : isom\n    minor_version   : 512\n    compatible_brands: isomiso2avc1mp41\n    encoder         : Lavf62.3.100\n  Stream #0:0(und): Video: vp9, yuv420p(tv, progressive), 1920x1080, q=2-31, 1000 kb/s, 30 fps, 1k tbn (default)\n    Metadata:\n      encoder         : Lavc62.11.100 libvpx-vp9\n      handler_name    : VideoHandler\n      vendor_id       : [0][0][0][0]\n    Side data:\n      cpb: bitrate max/min/avg: 0/0/0 buffer size: 1000000 vbv_delay: N/A\nframe=    0 fps=0.0 q=0.0 size=       0KiB time=N/A bitrate=N/A speed=N/A elapsed=0:00:00.54    \nframe=    7 fps=6.0 q=62.0 size=       1KiB time=00:00:00.23 bitrate=  21.7kbits/s speed=0.199x elapsed=0:00:01.17    \nframe=   14 fps=8.2 q=57.0 size=       1KiB time=00:00:00.46 bitrate=  10.9kbits/s speed=0.273x elapsed=0:00:01.70    \nframe=   20 fps=8.9 q=57.0 size=       1KiB time=00:00:00.66 bitrate=   7.6kbits/s speed=0.296x elapsed=0:00:02.25    \nframe=   25 fps=8.9 q=59.0 size=       1KiB time=00:00:00.83 bitrate=   6.1kbits/s speed=0.298x elapsed=0:00:02.79    \nframe=   31 fps=9.3 q=40.0 size=       1KiB time=00:00:01.03 bitrate=   4.9kbits/s speed=0.309x elapsed=0:00:03.34    \nframe=   38 fps=9.8 q=56.0 size=       1KiB time=00:00:01.26 bitrate=   4.0kbits/s speed=0.328x elapsed=0:00:03.85    \nframe=   44 fps=9.9 q=56.0 size=       1KiB time=00:00:01.46 bitrate=   3.5kbits/s speed=0.331x elapsed=0:00:04.42    \nframe=   50 fps= 10 q=59.0 size=       1KiB time=00:00:01.66 bitrate=   3.0kbits/s speed=0.336x elapsed=0:00:04.96    \nframe=   55 fps= 10 q=58.0 size=       1KiB time=00:00:01.83 bitrate=   2.8kbits/s speed=0.333x elapsed=0:00:05.50    \nframe=   60 fps=9.9 q=59.0 size=       1KiB time=00:00:02.00 bitrate=   2.5kbits/s speed=0.331x elapsed=0:00:06.03    \nframe=   67 fps= 10 q=57.0 size=       1KiB time=00:00:02.23 bitrate=   2.3kbits/s speed=0.34x elapsed=0:00:06.56    \nframe=   72 fps= 10 q=57.0 size=       1KiB time=00:00:02.40 bitrate=   2.1kbits/s speed=0.339x elapsed=0:00:07.08    \nframe=   78 fps= 10 q=58.0 size=       1KiB time=00:00:02.60 bitrate=   2.0kbits/s speed=0.342x elapsed=0:00:07.60    \nframe=   84 fps= 10 q=59.0 size=       1KiB time=00:00:02.76 bitrate=   1.8kbits/s speed=0.341x elapsed=0:00:08.12    \nframe=   90 fps= 10 q=61.0 size=       1KiB time=00:00:03.00 bitrate=   1.7kbits/s speed=0.344x elapsed=0:00:08.72    \nframe=   95 fps= 10 q=60.0 size=       1KiB time=00:00:03.16 bitrate=   1.6kbits/s speed=0.341x elapsed=0:00:09.27    \nframe=  100 fps= 10 q=60.0 size=       1KiB time=00:00:03.33 bitrate=   1.5kbits/s speed=0.341x elapsed=0:00:09.78    \nframe=  107 fps= 10 q=60.0 size=       1KiB time=00:00:03.56 bitrate=   1.4kbits/s speed=0.346x elapsed=0:00:10.30    \nframe=  112 fps= 10 q=61.0 size=       1KiB time=00:00:03.73 bitrate=   1.4kbits/s speed=0.344x elapsed=0:00:10.83    \nframe=  118 fps= 10 q=60.0 size=       1KiB time=00:00:03.93 bitrate=   1.3kbits/s speed=0.346x elapsed=0:00:11.35    \nframe=  124 fps= 10 q=60.0 size=       1KiB time=00:00:04.10 bitrate=   1.2kbits/s speed=0.346x elapsed=0:00:11.86    \nframe=  126 fps= 10 q=60.0 size=       1KiB time=00:00:04.20 bitrate=   1.2kbits/s speed=0.337x elapsed=0:00:12.44    \nframe=  126 fps=9.7 q=60.0 size=       1KiB time=00:00:04.20 bitrate=   1.2kbits/s speed=0.324x elapsed=0:00:12.98    \nframe=  126 fps=9.3 q=60.0 size=       1KiB time=00:00:04.20 bitrate=   1.2kbits/s speed=0.311x elapsed=0:00:13.50    \nframe=  126 fps=9.0 q=60.0 size=       1KiB time=00:00:04.20 bitrate=   1.2kbits/s speed=0.299x elapsed=0:00:14.05    \n[out#0/webm @ 00000224a3af12c0] video:536KiB audio:0KiB subtitle:0KiB other streams:0KiB global headers:0KiB muxing overhead: 0.318665%\nframe=  150 fps= 10 q=58.0 Lsize=     538KiB time=00:00:05.00 bitrate= 881.5kbits/s speed=0.348x elapsed=0:00:14.35    \n",
  "seconds": 14.636080741882324,
  "probe_out": {}
}